<?xml version="1.0" encoding="UTF-8"?>
<svg xmlns="http://www.w3.org/2000/svg" version="1.1" xmlns:xlink="http://www.w3.org/1999/xlink" viewBox="0 0 2000 2000">
  <!-- Generator: Adobe Illustrator 29.3.1, SVG Export Plug-In . SVG Version: 2.1.0 Build 151)  -->
  <defs>
    <style>
      .st0 {
        fill: url(#_Безымянный_градиент_231);
      }

      .st1 {
        fill: url(#_Безымянный_градиент_232);
      }

      .st2 {
        fill: url(#_Безымянный_градиент_15);
      }

      .st3 {
        fill: url(#_Безымянный_градиент_321);
      }

      .st4 {
        fill: url(#_Безымянный_градиент_93);
      }

      .st5 {
        fill: url(#_Безымянный_градиент_323);
      }

      .st6 {
        fill: url(#_Безымянный_градиент_97);
      }

      .st7 {
        fill: url(#_Безымянный_градиент_233);
      }

      .st8 {
        fill: url(#_Безымянный_градиент_322);
      }

      .st9 {
        fill: url(#_Безымянный_градиент_95);
      }

      .st10 {
        fill: url(#_Безымянный_градиент_32);
      }

      .st11 {
        fill: url(#_Безымянный_градиент_23);
      }

      .st12 {
        fill: url(#_Безымянный_градиент_96);
      }

      .st13 {
        fill: url(#_Безымянный_градиент_44);
      }

      .st14 {
        fill: url(#_Безымянный_градиент_9);
      }

      .st15 {
        display: none;
      }

      .st16 {
        fill: url(#_Безымянный_градиент_441);
      }

      .st17 {
        fill: url(#_Безымянный_градиент_92);
      }

      .st18 {
        fill: url(#_Безымянный_градиент_94);
      }

      .st19 {
        fill: url(#_Безымянный_градиент_3);
      }

      .st20 {
        fill: url(#_Безымянный_градиент_91);
      }

      .st21 {
        fill: url(#_Безымянный_градиент_443);
      }

      .st22 {
        fill: url(#_Безымянный_градиент_442);
      }
    </style>
    <linearGradient id="_Безымянный_градиент_9" data-name="Безымянный градиент 9" x1="148.14" y1="1000" x2="514.65" y2="1000" gradientUnits="userSpaceOnUse">
      <stop offset="0" stop-color="#f2ecb6"/>
      <stop offset="1" stop-color="#a96f44"/>
    </linearGradient>
    <linearGradient id="_Безымянный_градиент_91" data-name="Безымянный градиент 9" x1="644.68" y1="1217.11" x2="702.08" y2="921.8" xlink:href="#_Безымянный_градиент_9"/>
    <linearGradient id="_Безымянный_градиент_92" data-name="Безымянный градиент 9" x1="907.39" y1="1205.73" x2="948.15" y2="996.04" xlink:href="#_Безымянный_градиент_9"/>
    <linearGradient id="_Безымянный_градиент_93" data-name="Безымянный градиент 9" x1="1113.9" y1="1211.24" x2="1173.12" y2="906.61" xlink:href="#_Безымянный_градиент_9"/>
    <linearGradient id="_Безымянный_градиент_94" data-name="Безымянный градиент 9" x1="1320.49" y1="1207.37" x2="1363.62" y2="985.47" xlink:href="#_Безымянный_градиент_9"/>
    <linearGradient id="_Безымянный_градиент_95" data-name="Безымянный градиент 9" x1="1507.96" y1="1205.73" x2="1548.72" y2="996.04" xlink:href="#_Безымянный_градиент_9"/>
    <linearGradient id="_Безымянный_градиент_96" data-name="Безымянный градиент 9" x1="1732.1" y1="1205.73" x2="1772.86" y2="996.04" xlink:href="#_Безымянный_градиент_9"/>
    <linearGradient id="_Безымянный_градиент_15" data-name="Безымянный градиент 15" x1="3783.34" y1="-488.21" x2="4072.88" y2="-488.21" gradientUnits="userSpaceOnUse">
      <stop offset="0" stop-color="#977dff"/>
      <stop offset="1" stop-color="#03f"/>
    </linearGradient>
    <linearGradient id="_Безымянный_градиент_97" data-name="Безымянный градиент 9" x1="3069.69" y1="-488.21" x2="3359.22" y2="-488.21" xlink:href="#_Безымянный_градиент_9"/>
    <linearGradient id="_Безымянный_градиент_23" data-name="Безымянный градиент 23" x1="4641.76" y1="61.5" x2="4641.76" y2="389.37" gradientUnits="userSpaceOnUse">
      <stop offset="0" stop-color="#009bf3"/>
      <stop offset="1" stop-color="#a52ddc"/>
    </linearGradient>
    <linearGradient id="_Безымянный_градиент_231" data-name="Безымянный градиент 23" x1="3928.11" y1="389.37" x2="3928.11" y2="61.5" xlink:href="#_Безымянный_градиент_23"/>
    <linearGradient id="_Безымянный_градиент_232" data-name="Безымянный градиент 23" x1="3069.69" y1="225.44" x2="3359.22" y2="225.44" xlink:href="#_Безымянный_градиент_23"/>
    <linearGradient id="_Безымянный_градиент_44" data-name="Безымянный градиент 44" x1="4641.76" y1="1488.97" x2="4641.76" y2="1816.84" gradientUnits="userSpaceOnUse">
      <stop offset="0" stop-color="#963af3"/>
      <stop offset="1" stop-color="#2a1ae2"/>
    </linearGradient>
    <linearGradient id="_Безымянный_градиент_441" data-name="Безымянный градиент 44" x1="3928.11" y1="1816.84" x2="3928.11" y2="1488.97" xlink:href="#_Безымянный_градиент_44"/>
    <linearGradient id="_Безымянный_градиент_442" data-name="Безымянный градиент 44" x1="3069.69" y1="1652.91" x2="3359.22" y2="1652.91" xlink:href="#_Безымянный_градиент_44"/>
    <linearGradient id="_Безымянный_градиент_443" data-name="Безымянный градиент 44" x1="2645.57" y1="1652.91" x2="2356.04" y2="1652.91" xlink:href="#_Безымянный_градиент_44"/>
    <linearGradient id="_Безымянный_градиент_32" data-name="Безымянный градиент 32" x1="4641.76" y1="775.18" x2="4641.76" y2="1103.05" gradientUnits="userSpaceOnUse">
      <stop offset="0" stop-color="#f33a93"/>
      <stop offset="1" stop-color="#492fe8"/>
    </linearGradient>
    <linearGradient id="_Безымянный_градиент_321" data-name="Безымянный градиент 32" x1="3928.11" y1="1103.05" x2="3928.11" y2="775.18" xlink:href="#_Безымянный_градиент_32"/>
    <linearGradient id="_Безымянный_градиент_322" data-name="Безымянный градиент 32" x1="3069.69" y1="939.11" x2="3359.22" y2="939.11" xlink:href="#_Безымянный_градиент_32"/>
    <linearGradient id="_Безымянный_градиент_323" data-name="Безымянный градиент 32" x1="2645.57" y1="939.11" x2="2356.04" y2="939.11" xlink:href="#_Безымянный_градиент_32"/>
    <linearGradient id="_Безымянный_градиент_233" data-name="Безымянный градиент 23" x1="2645.57" y1="225.44" x2="2356.04" y2="225.44" xlink:href="#_Безымянный_градиент_23"/>
    <linearGradient id="_Безымянный_градиент_3" data-name="Безымянный градиент 3" x1="2356.04" y1="-488.21" x2="2645.57" y2="-488.21" gradientUnits="userSpaceOnUse">
      <stop offset="0" stop-color="#efd181"/>
      <stop offset="1" stop-color="#c59c40"/>
    </linearGradient>
  </defs>
  <g id="_Шар_1" data-name="Шар_1">
    <g>
      <path class="st14" d="M177.43,829.05l-24.72-5.93,24.72-5.93,5.93-24.72,5.93,24.72,24.72,5.93-24.72,5.93-5.93,24.72-5.93-24.72ZM264.1,888.69l3.66-15.28,15.28-3.66-15.28-3.66-3.66-15.28-3.66,15.28-15.28,3.66,15.28,3.66,3.66,15.28ZM185.62,918.63l9.44-2.26-9.44-2.26-2.26-9.44-2.26,9.44-9.44,2.26,9.44,2.26,2.26,9.44,2.26-9.44ZM251.53,1055.07c2.24.14,4.5.25,6.76.35v-117.07h-6.76v25.62h-12.68v72.93c4.19.48,8.42.85,12.68,1.12v17.06ZM270.95,963.96h-5.91v74.63c1.49.02,2.99.04,4.48.04h1.43v-74.66ZM404.53,1021.72c2.26-1.22,4.52-2.47,6.76-3.74v-174.32h-6.76v25.62h-12.7v139.91c4.3-2.22,8.55-4.54,12.7-6.95v19.5ZM423.95,869.26h-5.91v124.5c1.99-1.31,3.96-2.66,5.91-4.05v-120.45ZM328.01,1049.63c2.28-.48,4.54-.97,6.76-1.51v-157.13h-6.76v25.62h-12.66v118.12c4.25-.73,8.47-1.56,12.66-2.49v17.39ZM347.43,916.61h-5.91v112.23c1.99-.56,3.96-1.12,5.91-1.72v-110.51ZM465.08,1087.59c-46.97,26.59-102.29,39.48-160.09,33.87-54.12-5.25-102.99-26.02-142.64-57.5,30.37,49.12,82.53,84,144.47,90.01,59.92,5.82,116.08-16.64,155.24-56.49,5.27-5.35,10.23-11.03,14.84-16.98-3.87,2.46-7.82,4.83-11.82,7.08v.02ZM240.44,1069.58c-22.36-2.17-43.93-6.75-64.44-13.43,30.54,21.99,67.15,36.42,107.31,40.32,72.83,7.07,140.81-22.13,186.02-72.86,20.17-22.59,35.81-49.47,45.32-79.3-14.51,20.43-31.49,38.91-50.45,55.03-59.81,50.9-139.39,78.43-223.76,70.24ZM337.18,1189.79c-80.87-7.85-149.06-53.16-189.05-117.09,12.12,70.37,69.94,126.82,144.44,134.05,31.7,3.08,62.16-3.18,88.64-16.53-14.42,1.12-29.15,1.01-44.04-.44Z"/>
      <g>
        <path class="st20" d="M696.8,923.63c26.03,0,47.32,5.79,63.85,17.38,16.53,11.59,24.8,29.09,24.8,52.52,0,13.02-3.38,24.54-10.15,34.56-6.77,10.02-16.01,17.64-27.73,22.84,33.84,9.63,50.76,32.28,50.76,67.95,0,26.29-8.85,46.66-26.55,61.11-17.7,14.45-40.22,21.67-67.56,21.67h-139.02v-278.03h131.6ZM624.56,1153.24h61.31c15.88,0,28.44-2.6,37.68-7.81s13.86-15.23,13.86-30.07-4.88-25.19-14.64-30.26c-9.76-5.08-23.1-7.61-40.03-7.61h-58.18v75.76ZM624.56,1036.1h55.45c30.72,0,46.08-10.8,46.08-32.41,0-12.76-4.17-21.41-12.5-25.97-8.33-4.56-19.52-6.83-33.58-6.83h-55.45v65.21Z"/>
        <path class="st17" d="M989.48,1189.56c-16.79,11.98-36.77,17.96-59.94,17.96-30.98,0-55.91-9.63-74.78-28.9-18.87-19.26-28.31-44.78-28.31-76.54s9.5-57.01,28.51-77.32c19-20.31,43.22-30.46,72.63-30.46s54.67,10.35,72.63,31.04c17.96,20.7,26.94,48.75,26.94,84.15v5.47h-144.48c.26,17.44,4.49,30.72,12.69,39.83,8.2,9.11,19.72,13.67,34.56,13.67,19.53,0,33.19-9.76,41-29.29h53.11c-6.25,21.61-17.77,38.4-34.56,50.37ZM958.04,1047.22c-7.29-8.46-17.44-12.69-30.46-12.69-12.24,0-22.39,4.04-30.46,12.11-8.07,8.07-12.89,19.13-14.45,33.19h88.25c-1.3-13.28-5.6-24.15-12.89-32.61Z"/>
        <path class="st4" d="M1260.67,974.79h-135.11v64.43h117.54v48.42h-117.54v114.02h-60.92v-278.03h196.03v51.15Z"/>
        <path class="st18" d="M1421.15,1047.81c-7.81-1.56-14.97-2.34-21.48-2.34-18.22,0-31.63,5.79-40.22,17.38-8.59,11.58-12.89,27.14-12.89,46.66v92.16h-55.45v-201.49h52.72v37.1c13.28-27.86,35.01-41.78,65.21-41.78,2.6,0,6.64.39,12.11,1.17v51.15Z"/>
        <path class="st9" d="M1590.04,1189.56c-16.79,11.98-36.77,17.96-59.94,17.96-30.98,0-55.91-9.63-74.78-28.9-18.87-19.26-28.31-44.78-28.31-76.54s9.5-57.01,28.51-77.32c19-20.31,43.22-30.46,72.63-30.46s54.67,10.35,72.63,31.04c17.96,20.7,26.94,48.75,26.94,84.15v5.47h-144.48c.26,17.44,4.49,30.72,12.69,39.83,8.2,9.11,19.72,13.67,34.56,13.67,19.53,0,33.19-9.76,41-29.29h53.11c-6.25,21.61-17.77,38.4-34.56,50.37ZM1558.61,1047.22c-7.29-8.46-17.44-12.69-30.46-12.69-12.24,0-22.39,4.04-30.46,12.11-8.07,8.07-12.89,19.13-14.45,33.19h88.25c-1.3-13.28-5.6-24.15-12.89-32.61Z"/>
        <path class="st12" d="M1814.18,1189.56c-16.79,11.98-36.77,17.96-59.94,17.96-30.98,0-55.91-9.63-74.78-28.9-18.87-19.26-28.31-44.78-28.31-76.54s9.5-57.01,28.51-77.32c19-20.31,43.22-30.46,72.63-30.46s54.67,10.35,72.63,31.04c17.96,20.7,26.94,48.75,26.94,84.15v5.47h-144.48c.26,17.44,4.49,30.72,12.69,39.83,8.2,9.11,19.72,13.67,34.56,13.67,19.53,0,33.19-9.76,41-29.29h53.11c-6.25,21.61-17.77,38.4-34.56,50.37ZM1782.75,1047.22c-7.29-8.46-17.44-12.69-30.46-12.69-12.24,0-22.39,4.04-30.46,12.11-8.07,8.07-12.89,19.13-14.45,33.19h88.25c-1.3-13.28-5.6-24.15-12.89-32.61Z"/>
      </g>
    </g>
  </g>
  <g id="_Шар_2" data-name="Шар_2" class="st15">
    <path class="st2" d="M3806.48-623.26l-19.53-4.68,19.53-4.68,4.68-19.53,4.68,19.53,19.53,4.68-19.53,4.68-4.68,19.53-4.68-19.53ZM3874.95-576.15l2.89-12.07,12.07-2.89-12.07-2.89-2.89-12.07-2.89,12.07-12.07,2.89,12.07,2.89,2.89,12.07ZM3812.95-552.49l7.46-1.79-7.46-1.79-1.79-7.46-1.79,7.46-7.46,1.79,7.46,1.79,1.79,7.46,1.79-7.46ZM3865.02-444.71c1.77.11,3.55.2,5.34.27v-92.48h-5.34v20.23h-10.02v57.61c3.31.38,6.65.67,10.02.88v13.48ZM3880.36-516.68h-4.67v58.95c1.17.01,2.36.03,3.54.03h1.13v-58.98ZM3985.88-471.06c1.78-.96,3.57-1.95,5.34-2.96v-137.71h-5.34v20.23h-10.03v110.52c3.4-1.75,6.76-3.58,10.03-5.49v15.4ZM4001.22-591.49h-4.67v98.35c1.57-1.04,3.13-2.1,4.67-3.2v-95.15ZM3925.44-449.01c1.8-.38,3.58-.76,5.34-1.19v-124.12h-5.34v20.23h-10v93.31c3.35-.58,6.69-1.24,10-1.97v13.74ZM3940.78-554.09h-4.67v88.66c1.57-.44,3.13-.88,4.67-1.36v-87.3ZM4033.71-419.02c-37.11,21-80.81,31.19-126.46,26.76-42.75-4.15-81.36-20.55-112.68-45.43,23.99,38.81,65.2,66.35,114.13,71.1,47.34,4.6,91.7-13.14,122.63-44.63,4.16-4.22,8.08-8.71,11.72-13.42-3.05,1.94-6.18,3.81-9.34,5.59v.02ZM3856.26-433.25c-17.67-1.72-34.7-5.33-50.91-10.61,24.13,17.37,53.05,28.77,84.77,31.85,57.54,5.59,111.24-17.48,146.95-57.56,15.93-17.85,28.29-39.08,35.8-62.65-11.46,16.14-24.88,30.74-39.86,43.47-47.24,40.21-110.12,61.96-176.76,55.49ZM3932.68-338.29c-63.88-6.2-117.75-42-149.34-92.49,9.57,55.59,55.25,100.18,114.1,105.89,25.04,2.43,49.1-2.51,70.02-13.06-11.39.89-23.03.8-34.79-.34Z"/>
    <path class="st6" d="M3092.83-623.26l-19.53-4.68,19.53-4.68,4.68-19.53,4.68,19.53,19.53,4.68-19.53,4.68-4.68,19.53-4.68-19.53ZM3161.3-576.15l2.89-12.07,12.07-2.89-12.07-2.89-2.89-12.07-2.89,12.07-12.07,2.89,12.07,2.89,2.89,12.07ZM3099.3-552.49l7.46-1.79-7.46-1.79-1.79-7.46-1.79,7.46-7.46,1.79,7.46,1.79,1.79,7.46,1.79-7.46ZM3151.37-444.71c1.77.11,3.55.2,5.34.27v-92.48h-5.34v20.23h-10.02v57.61c3.31.38,6.65.67,10.02.88v13.48ZM3166.71-516.68h-4.67v58.95c1.17.01,2.36.03,3.54.03h1.13v-58.98ZM3272.23-471.06c1.78-.96,3.57-1.95,5.34-2.96v-137.71h-5.34v20.23h-10.03v110.52c3.4-1.75,6.76-3.58,10.03-5.49v15.4ZM3287.57-591.49h-4.67v98.35c1.57-1.04,3.13-2.1,4.67-3.2v-95.15ZM3211.79-449.01c1.8-.38,3.58-.76,5.34-1.19v-124.12h-5.34v20.23h-10v93.31c3.35-.58,6.69-1.24,10-1.97v13.74ZM3227.13-554.09h-4.67v88.66c1.57-.44,3.13-.88,4.67-1.36v-87.3ZM3320.06-419.02c-37.11,21-80.81,31.19-126.46,26.76-42.75-4.15-81.36-20.55-112.68-45.43,23.99,38.81,65.2,66.35,114.13,71.1,47.34,4.6,91.7-13.14,122.63-44.63,4.16-4.22,8.08-8.71,11.72-13.42-3.05,1.94-6.18,3.81-9.34,5.59v.02ZM3142.61-433.25c-17.67-1.72-34.7-5.33-50.91-10.61,24.13,17.37,53.05,28.77,84.77,31.85,57.54,5.59,111.24-17.48,146.95-57.56,15.93-17.85,28.29-39.08,35.8-62.65-11.46,16.14-24.88,30.74-39.86,43.47-47.24,40.21-110.12,61.96-176.76,55.49ZM3219.03-338.29c-63.88-6.2-117.75-42-149.34-92.49,9.57,55.59,55.25,100.18,114.1,105.89,25.04,2.43,49.1-2.51,70.02-13.06-11.39.89-23.03.8-34.79-.34Z"/>
    <path class="st11" d="M4520.13,90.39l-19.53-4.68,19.53-4.68,4.68-19.53,4.68,19.53,19.53,4.68-19.53,4.68-4.68,19.53-4.68-19.53ZM4588.6,137.51l2.89-12.07,12.07-2.89-12.07-2.89-2.89-12.07-2.89,12.07-12.07,2.89,12.07,2.89,2.89,12.07ZM4526.6,161.16l7.46-1.79-7.46-1.79-1.79-7.46-1.79,7.46-7.46,1.79,7.46,1.79,1.79,7.46,1.79-7.46ZM4578.67,268.94c1.77.11,3.55.2,5.34.27v-92.48h-5.34v20.23h-10.02v57.61c3.31.38,6.65.67,10.02.88v13.48ZM4594.01,196.97h-4.67v58.95c1.17.01,2.36.03,3.54.03h1.13v-58.98ZM4699.53,242.59c1.78-.96,3.57-1.95,5.34-2.96V101.92h-5.34v20.23h-10.03v110.52c3.4-1.75,6.76-3.58,10.03-5.49v15.4ZM4714.87,122.16h-4.67v98.35c1.57-1.04,3.13-2.1,4.67-3.2v-95.15ZM4639.09,264.64c1.8-.38,3.58-.76,5.34-1.19v-124.12h-5.34v20.23h-10v93.31c3.35-.58,6.69-1.24,10-1.97v13.74ZM4654.43,159.56h-4.67v88.66c1.57-.44,3.13-.88,4.67-1.36v-87.3ZM4747.36,294.63c-37.11,21-80.81,31.19-126.46,26.76-42.75-4.15-81.36-20.55-112.68-45.43,23.99,38.81,65.2,66.35,114.13,71.1,47.34,4.6,91.7-13.14,122.63-44.63,4.16-4.22,8.08-8.71,11.72-13.42-3.05,1.94-6.18,3.81-9.34,5.59v.02ZM4569.91,280.4c-17.67-1.72-34.7-5.33-50.91-10.61,24.13,17.37,53.05,28.77,84.77,31.85,57.54,5.59,111.24-17.48,146.95-57.56,15.93-17.85,28.29-39.08,35.8-62.65-11.46,16.14-24.88,30.74-39.86,43.47-47.24,40.21-110.12,61.96-176.76,55.49ZM4646.33,375.36c-63.88-6.2-117.75-42-149.34-92.49,9.57,55.59,55.25,100.18,114.1,105.89,25.04,2.43,49.1-2.51,70.02-13.06-11.39.89-23.03.8-34.79-.34Z"/>
    <path class="st0" d="M3806.48,90.39l-19.53-4.68,19.53-4.68,4.68-19.53,4.68,19.53,19.53,4.68-19.53,4.68-4.68,19.53-4.68-19.53ZM3874.95,137.51l2.89-12.07,12.07-2.89-12.07-2.89-2.89-12.07-2.89,12.07-12.07,2.89,12.07,2.89,2.89,12.07ZM3812.95,161.16l7.46-1.79-7.46-1.79-1.79-7.46-1.79,7.46-7.46,1.79,7.46,1.79,1.79,7.46,1.79-7.46ZM3865.02,268.94c1.77.11,3.55.2,5.34.27v-92.48h-5.34v20.23h-10.02v57.61c3.31.38,6.65.67,10.02.88v13.48ZM3880.36,196.97h-4.67v58.95c1.17.01,2.36.03,3.54.03h1.13v-58.98ZM3985.88,242.59c1.78-.96,3.57-1.95,5.34-2.96V101.92h-5.34v20.23h-10.03v110.52c3.4-1.75,6.76-3.58,10.03-5.49v15.4ZM4001.22,122.16h-4.67v98.35c1.57-1.04,3.13-2.1,4.67-3.2v-95.15ZM3925.44,264.64c1.8-.38,3.58-.76,5.34-1.19v-124.12h-5.34v20.23h-10v93.31c3.35-.58,6.69-1.24,10-1.97v13.74ZM3940.78,159.56h-4.67v88.66c1.57-.44,3.13-.88,4.67-1.36v-87.3ZM4033.71,294.63c-37.11,21-80.81,31.19-126.46,26.76-42.75-4.15-81.36-20.55-112.68-45.43,23.99,38.81,65.2,66.35,114.13,71.1,47.34,4.6,91.7-13.14,122.63-44.63,4.16-4.22,8.08-8.71,11.72-13.42-3.05,1.94-6.18,3.81-9.34,5.59v.02ZM3856.26,280.4c-17.67-1.72-34.7-5.33-50.91-10.61,24.13,17.37,53.05,28.77,84.77,31.85,57.54,5.59,111.24-17.48,146.95-57.56,15.93-17.85,28.29-39.08,35.8-62.65-11.46,16.14-24.88,30.74-39.86,43.47-47.24,40.21-110.12,61.96-176.76,55.49ZM3932.68,375.36c-63.88-6.2-117.75-42-149.34-92.49,9.57,55.59,55.25,100.18,114.1,105.89,25.04,2.43,49.1-2.51,70.02-13.06-11.39.89-23.03.8-34.79-.34Z"/>
    <path class="st1" d="M3092.83,90.39l-19.53-4.68,19.53-4.68,4.68-19.53,4.68,19.53,19.53,4.68-19.53,4.68-4.68,19.53-4.68-19.53ZM3161.3,137.51l2.89-12.07,12.07-2.89-12.07-2.89-2.89-12.07-2.89,12.07-12.07,2.89,12.07,2.89,2.89,12.07ZM3099.3,161.16l7.46-1.79-7.46-1.79-1.79-7.46-1.79,7.46-7.46,1.79,7.46,1.79,1.79,7.46,1.79-7.46ZM3151.37,268.94c1.77.11,3.55.2,5.34.27v-92.48h-5.34v20.23h-10.02v57.61c3.31.38,6.65.67,10.02.88v13.48ZM3166.71,196.97h-4.67v58.95c1.17.01,2.36.03,3.54.03h1.13v-58.98ZM3272.23,242.59c1.78-.96,3.57-1.95,5.34-2.96V101.92h-5.34v20.23h-10.03v110.52c3.4-1.75,6.76-3.58,10.03-5.49v15.4ZM3287.57,122.16h-4.67v98.35c1.57-1.04,3.13-2.1,4.67-3.2v-95.15ZM3211.79,264.64c1.8-.38,3.58-.76,5.34-1.19v-124.12h-5.34v20.23h-10v93.31c3.35-.58,6.69-1.24,10-1.97v13.74ZM3227.13,159.56h-4.67v88.66c1.57-.44,3.13-.88,4.67-1.36v-87.3ZM3320.06,294.63c-37.11,21-80.81,31.19-126.46,26.76-42.75-4.15-81.36-20.55-112.68-45.43,23.99,38.81,65.2,66.35,114.13,71.1,47.34,4.6,91.7-13.14,122.63-44.63,4.16-4.22,8.08-8.71,11.72-13.42-3.05,1.94-6.18,3.81-9.34,5.59v.02ZM3142.61,280.4c-17.67-1.72-34.7-5.33-50.91-10.61,24.13,17.37,53.05,28.77,84.77,31.85,57.54,5.59,111.24-17.48,146.95-57.56,15.93-17.85,28.29-39.08,35.8-62.65-11.46,16.14-24.88,30.74-39.86,43.47-47.24,40.21-110.12,61.96-176.76,55.49ZM3219.03,375.36c-63.88-6.2-117.75-42-149.34-92.49,9.57,55.59,55.25,100.18,114.1,105.89,25.04,2.43,49.1-2.51,70.02-13.06-11.39.89-23.03.8-34.79-.34Z"/>
    <path class="st13" d="M4520.13,1517.86l-19.53-4.68,19.53-4.68,4.68-19.53,4.68,19.53,19.53,4.68-19.53,4.68-4.68,19.53-4.68-19.53ZM4588.6,1564.97l2.89-12.07,12.07-2.89-12.07-2.89-2.89-12.07-2.89,12.07-12.07,2.89,12.07,2.89,2.89,12.07ZM4526.6,1588.63l7.46-1.79-7.46-1.79-1.79-7.46-1.79,7.46-7.46,1.79,7.46,1.79,1.79,7.46,1.79-7.46ZM4578.67,1696.41c1.77.11,3.55.2,5.34.27v-92.48h-5.34v20.23h-10.02v57.61c3.31.38,6.65.67,10.02.88v13.48ZM4594.01,1624.44h-4.67v58.95c1.17.01,2.36.03,3.54.03h1.13v-58.98ZM4699.53,1670.06c1.78-.96,3.57-1.95,5.34-2.96v-137.71h-5.34v20.23h-10.03v110.52c3.4-1.75,6.76-3.58,10.03-5.49v15.4ZM4714.87,1549.63h-4.67v98.35c1.57-1.04,3.13-2.1,4.67-3.2v-95.15ZM4639.09,1692.11c1.8-.38,3.58-.76,5.34-1.19v-124.12h-5.34v20.23h-10v93.31c3.35-.58,6.69-1.24,10-1.97v13.74ZM4654.43,1587.03h-4.67v88.66c1.57-.44,3.13-.88,4.67-1.36v-87.3ZM4747.36,1722.1c-37.11,21-80.81,31.19-126.46,26.76-42.75-4.15-81.36-20.55-112.68-45.43,23.99,38.81,65.2,66.35,114.13,71.1,47.34,4.6,91.7-13.14,122.63-44.63,4.16-4.22,8.08-8.71,11.72-13.42-3.05,1.94-6.18,3.81-9.34,5.59v.02ZM4569.91,1707.87c-17.67-1.72-34.7-5.33-50.91-10.61,24.13,17.37,53.05,28.77,84.77,31.85,57.54,5.59,111.24-17.48,146.95-57.56,15.93-17.85,28.29-39.08,35.8-62.65-11.46,16.14-24.88,30.74-39.86,43.47-47.24,40.21-110.12,61.96-176.76,55.49ZM4646.33,1802.83c-63.88-6.2-117.75-42-149.34-92.49,9.57,55.59,55.25,100.18,114.1,105.89,25.04,2.43,49.1-2.51,70.02-13.06-11.39.89-23.03.8-34.79-.34Z"/>
    <path class="st16" d="M3806.48,1517.86l-19.53-4.68,19.53-4.68,4.68-19.53,4.68,19.53,19.53,4.68-19.53,4.68-4.68,19.53-4.68-19.53ZM3874.95,1564.97l2.89-12.07,12.07-2.89-12.07-2.89-2.89-12.07-2.89,12.07-12.07,2.89,12.07,2.89,2.89,12.07ZM3812.95,1588.63l7.46-1.79-7.46-1.79-1.79-7.46-1.79,7.46-7.46,1.79,7.46,1.79,1.79,7.46,1.79-7.46ZM3865.02,1696.41c1.77.11,3.55.2,5.34.27v-92.48h-5.34v20.23h-10.02v57.61c3.31.38,6.65.67,10.02.88v13.48ZM3880.36,1624.44h-4.67v58.95c1.17.01,2.36.03,3.54.03h1.13v-58.98ZM3985.88,1670.06c1.78-.96,3.57-1.95,5.34-2.96v-137.71h-5.34v20.23h-10.03v110.52c3.4-1.75,6.76-3.58,10.03-5.49v15.4ZM4001.22,1549.63h-4.67v98.35c1.57-1.04,3.13-2.1,4.67-3.2v-95.15ZM3925.44,1692.11c1.8-.38,3.58-.76,5.34-1.19v-124.12h-5.34v20.23h-10v93.31c3.35-.58,6.69-1.24,10-1.97v13.74ZM3940.78,1587.03h-4.67v88.66c1.57-.44,3.13-.88,4.67-1.36v-87.3ZM4033.71,1722.1c-37.11,21-80.81,31.19-126.46,26.76-42.75-4.15-81.36-20.55-112.68-45.43,23.99,38.81,65.2,66.35,114.13,71.1,47.34,4.6,91.7-13.14,122.63-44.63,4.16-4.22,8.08-8.71,11.72-13.42-3.05,1.94-6.18,3.81-9.34,5.59v.02ZM3856.26,1707.87c-17.67-1.72-34.7-5.33-50.91-10.61,24.13,17.37,53.05,28.77,84.77,31.85,57.54,5.59,111.24-17.48,146.95-57.56,15.93-17.85,28.29-39.08,35.8-62.65-11.46,16.14-24.88,30.74-39.86,43.47-47.24,40.21-110.12,61.96-176.76,55.49ZM3932.68,1802.83c-63.88-6.2-117.75-42-149.34-92.49,9.57,55.59,55.25,100.18,114.1,105.89,25.04,2.43,49.1-2.51,70.02-13.06-11.39.89-23.03.8-34.79-.34Z"/>
    <path class="st22" d="M3092.83,1517.86l-19.53-4.68,19.53-4.68,4.68-19.53,4.68,19.53,19.53,4.68-19.53,4.68-4.68,19.53-4.68-19.53ZM3161.3,1564.97l2.89-12.07,12.07-2.89-12.07-2.89-2.89-12.07-2.89,12.07-12.07,2.89,12.07,2.89,2.89,12.07ZM3099.3,1588.63l7.46-1.79-7.46-1.79-1.79-7.46-1.79,7.46-7.46,1.79,7.46,1.79,1.79,7.46,1.79-7.46ZM3151.37,1696.41c1.77.11,3.55.2,5.34.27v-92.48h-5.34v20.23h-10.02v57.61c3.31.38,6.65.67,10.02.88v13.48ZM3166.71,1624.44h-4.67v58.95c1.17.01,2.36.03,3.54.03h1.13v-58.98ZM3272.23,1670.06c1.78-.96,3.57-1.95,5.34-2.96v-137.71h-5.34v20.23h-10.03v110.52c3.4-1.75,6.76-3.58,10.03-5.49v15.4ZM3287.57,1549.63h-4.67v98.35c1.57-1.04,3.13-2.1,4.67-3.2v-95.15ZM3211.79,1692.11c1.8-.38,3.58-.76,5.34-1.19v-124.12h-5.34v20.23h-10v93.31c3.35-.58,6.69-1.24,10-1.97v13.74ZM3227.13,1587.03h-4.67v88.66c1.57-.44,3.13-.88,4.67-1.36v-87.3ZM3320.06,1722.1c-37.11,21-80.81,31.19-126.46,26.76-42.75-4.15-81.36-20.55-112.68-45.43,23.99,38.81,65.2,66.35,114.13,71.1,47.34,4.6,91.7-13.14,122.63-44.63,4.16-4.22,8.08-8.71,11.72-13.42-3.05,1.94-6.18,3.81-9.34,5.59v.02ZM3142.61,1707.87c-17.67-1.72-34.7-5.33-50.91-10.61,24.13,17.37,53.05,28.77,84.77,31.85,57.54,5.59,111.24-17.48,146.95-57.56,15.93-17.85,28.29-39.08,35.8-62.65-11.46,16.14-24.88,30.74-39.86,43.47-47.24,40.21-110.12,61.96-176.76,55.49ZM3219.03,1802.83c-63.88-6.2-117.75-42-149.34-92.49,9.57,55.59,55.25,100.18,114.1,105.89,25.04,2.43,49.1-2.51,70.02-13.06-11.39.89-23.03.8-34.79-.34Z"/>
    <path class="st21" d="M2379.18,1517.86l-19.53-4.68,19.53-4.68,4.68-19.53,4.68,19.53,19.53,4.68-19.53,4.68-4.68,19.53-4.68-19.53ZM2447.65,1564.97l2.89-12.07,12.07-2.89-12.07-2.89-2.89-12.07-2.89,12.07-12.07,2.89,12.07,2.89,2.89,12.07ZM2385.65,1588.63l7.46-1.79-7.46-1.79-1.79-7.46-1.79,7.46-7.46,1.79,7.46,1.79,1.79,7.46,1.79-7.46ZM2437.72,1696.41c1.77.11,3.55.2,5.34.27v-92.48h-5.34v20.23h-10.02v57.61c3.31.38,6.65.67,10.02.88v13.48ZM2453.06,1624.44h-4.67v58.95c1.17.01,2.36.03,3.54.03h1.13v-58.98ZM2558.58,1670.06c1.78-.96,3.57-1.95,5.34-2.96v-137.71h-5.34v20.23h-10.03v110.52c3.4-1.75,6.76-3.58,10.03-5.49v15.4ZM2573.92,1549.63h-4.67v98.35c1.57-1.04,3.13-2.1,4.67-3.2v-95.15ZM2498.14,1692.11c1.8-.38,3.58-.76,5.34-1.19v-124.12h-5.34v20.23h-10v93.31c3.35-.58,6.69-1.24,10-1.97v13.74ZM2513.48,1587.03h-4.67v88.66c1.57-.44,3.13-.88,4.67-1.36v-87.3ZM2606.41,1722.1c-37.11,21-80.81,31.19-126.46,26.76-42.75-4.15-81.36-20.55-112.68-45.43,23.99,38.81,65.2,66.35,114.13,71.1,47.34,4.6,91.7-13.14,122.63-44.63,4.16-4.22,8.08-8.71,11.72-13.42-3.05,1.94-6.18,3.81-9.34,5.59v.02ZM2428.96,1707.87c-17.67-1.72-34.7-5.33-50.91-10.61,24.13,17.37,53.05,28.77,84.77,31.85,57.54,5.59,111.24-17.48,146.95-57.56,15.93-17.85,28.29-39.08,35.8-62.65-11.46,16.14-24.88,30.74-39.86,43.47-47.24,40.21-110.12,61.96-176.76,55.49ZM2505.38,1802.83c-63.88-6.2-117.75-42-149.34-92.49,9.57,55.59,55.25,100.18,114.1,105.89,25.04,2.43,49.1-2.51,70.02-13.06-11.39.89-23.03.8-34.79-.34Z"/>
    <path class="st10" d="M4520.13,804.07l-19.53-4.68,19.53-4.68,4.68-19.53,4.68,19.53,19.53,4.68-19.53,4.68-4.68,19.53-4.68-19.53ZM4588.6,851.18l2.89-12.07,12.07-2.89-12.07-2.89-2.89-12.07-2.89,12.07-12.07,2.89,12.07,2.89,2.89,12.07ZM4526.6,874.84l7.46-1.79-7.46-1.79-1.79-7.46-1.79,7.46-7.46,1.79,7.46,1.79,1.79,7.46,1.79-7.46ZM4578.67,982.62c1.77.11,3.55.2,5.34.27v-92.48h-5.34v20.23h-10.02v57.61c3.31.38,6.65.67,10.02.88v13.48ZM4594.01,910.65h-4.67v58.95c1.17.01,2.36.03,3.54.03h1.13v-58.98ZM4699.53,956.27c1.78-.96,3.57-1.95,5.34-2.96v-137.71h-5.34v20.23h-10.03v110.52c3.4-1.75,6.76-3.58,10.03-5.49v15.4ZM4714.87,835.84h-4.67v98.35c1.57-1.04,3.13-2.1,4.67-3.2v-95.15ZM4639.09,978.32c1.8-.38,3.58-.76,5.34-1.19v-124.12h-5.34v20.23h-10v93.31c3.35-.58,6.69-1.24,10-1.97v13.74ZM4654.43,873.24h-4.67v88.66c1.57-.44,3.13-.88,4.67-1.36v-87.3ZM4747.36,1008.3c-37.11,21-80.81,31.19-126.46,26.76-42.75-4.15-81.36-20.55-112.68-45.43,23.99,38.81,65.2,66.35,114.13,71.1,47.34,4.6,91.7-13.14,122.63-44.63,4.16-4.22,8.08-8.71,11.72-13.42-3.05,1.94-6.18,3.81-9.34,5.59v.02ZM4569.91,994.08c-17.67-1.72-34.7-5.33-50.91-10.61,24.13,17.37,53.05,28.77,84.77,31.85,57.54,5.59,111.24-17.48,146.95-57.56,15.93-17.85,28.29-39.08,35.8-62.65-11.46,16.14-24.88,30.74-39.86,43.47-47.24,40.21-110.12,61.96-176.76,55.49ZM4646.33,1089.04c-63.88-6.2-117.75-42-149.34-92.49,9.57,55.59,55.25,100.18,114.1,105.89,25.04,2.43,49.1-2.51,70.02-13.06-11.39.89-23.03.8-34.79-.34Z"/>
    <path class="st3" d="M3806.48,804.07l-19.53-4.68,19.53-4.68,4.68-19.53,4.68,19.53,19.53,4.68-19.53,4.68-4.68,19.53-4.68-19.53ZM3874.95,851.18l2.89-12.07,12.07-2.89-12.07-2.89-2.89-12.07-2.89,12.07-12.07,2.89,12.07,2.89,2.89,12.07ZM3812.95,874.84l7.46-1.79-7.46-1.79-1.79-7.46-1.79,7.46-7.46,1.79,7.46,1.79,1.79,7.46,1.79-7.46ZM3865.02,982.62c1.77.11,3.55.2,5.34.27v-92.48h-5.34v20.23h-10.02v57.61c3.31.38,6.65.67,10.02.88v13.48ZM3880.36,910.65h-4.67v58.95c1.17.01,2.36.03,3.54.03h1.13v-58.98ZM3985.88,956.27c1.78-.96,3.57-1.95,5.34-2.96v-137.71h-5.34v20.23h-10.03v110.52c3.4-1.75,6.76-3.58,10.03-5.49v15.4ZM4001.22,835.84h-4.67v98.35c1.57-1.04,3.13-2.1,4.67-3.2v-95.15ZM3925.44,978.32c1.8-.38,3.58-.76,5.34-1.19v-124.12h-5.34v20.23h-10v93.31c3.35-.58,6.69-1.24,10-1.97v13.74ZM3940.78,873.24h-4.67v88.66c1.57-.44,3.13-.88,4.67-1.36v-87.3ZM4033.71,1008.3c-37.11,21-80.81,31.19-126.46,26.76-42.75-4.15-81.36-20.55-112.68-45.43,23.99,38.81,65.2,66.35,114.13,71.1,47.34,4.6,91.7-13.14,122.63-44.63,4.16-4.22,8.08-8.71,11.72-13.42-3.05,1.94-6.18,3.81-9.34,5.59v.02ZM3856.26,994.08c-17.67-1.72-34.7-5.33-50.91-10.61,24.13,17.37,53.05,28.77,84.77,31.85,57.54,5.59,111.24-17.48,146.95-57.56,15.93-17.85,28.29-39.08,35.8-62.65-11.46,16.14-24.88,30.74-39.86,43.47-47.24,40.21-110.12,61.96-176.76,55.49ZM3932.68,1089.04c-63.88-6.2-117.75-42-149.34-92.49,9.57,55.59,55.25,100.18,114.1,105.89,25.04,2.43,49.1-2.51,70.02-13.06-11.39.89-23.03.8-34.79-.34Z"/>
    <path class="st8" d="M3092.83,804.07l-19.53-4.68,19.53-4.68,4.68-19.53,4.68,19.53,19.53,4.68-19.53,4.68-4.68,19.53-4.68-19.53ZM3161.3,851.18l2.89-12.07,12.07-2.89-12.07-2.89-2.89-12.07-2.89,12.07-12.07,2.89,12.07,2.89,2.89,12.07ZM3099.3,874.84l7.46-1.79-7.46-1.79-1.79-7.46-1.79,7.46-7.46,1.79,7.46,1.79,1.79,7.46,1.79-7.46ZM3151.37,982.62c1.77.11,3.55.2,5.34.27v-92.48h-5.34v20.23h-10.02v57.61c3.31.38,6.65.67,10.02.88v13.48ZM3166.71,910.65h-4.67v58.95c1.17.01,2.36.03,3.54.03h1.13v-58.98ZM3272.23,956.27c1.78-.96,3.57-1.95,5.34-2.96v-137.71h-5.34v20.23h-10.03v110.52c3.4-1.75,6.76-3.58,10.03-5.49v15.4ZM3287.57,835.84h-4.67v98.35c1.57-1.04,3.13-2.1,4.67-3.2v-95.15ZM3211.79,978.32c1.8-.38,3.58-.76,5.34-1.19v-124.12h-5.34v20.23h-10v93.31c3.35-.58,6.69-1.24,10-1.97v13.74ZM3227.13,873.24h-4.67v88.66c1.57-.44,3.13-.88,4.67-1.36v-87.3ZM3320.06,1008.3c-37.11,21-80.81,31.19-126.46,26.76-42.75-4.15-81.36-20.55-112.68-45.43,23.99,38.81,65.2,66.35,114.13,71.1,47.34,4.6,91.7-13.14,122.63-44.63,4.16-4.22,8.08-8.71,11.72-13.42-3.05,1.94-6.18,3.81-9.34,5.59v.02ZM3142.61,994.08c-17.67-1.72-34.7-5.33-50.91-10.61,24.13,17.37,53.05,28.77,84.77,31.85,57.54,5.59,111.24-17.48,146.95-57.56,15.93-17.85,28.29-39.08,35.8-62.65-11.46,16.14-24.88,30.74-39.86,43.47-47.24,40.21-110.12,61.96-176.76,55.49ZM3219.03,1089.04c-63.88-6.2-117.75-42-149.34-92.49,9.57,55.59,55.25,100.18,114.1,105.89,25.04,2.43,49.1-2.51,70.02-13.06-11.39.89-23.03.8-34.79-.34Z"/>
    <path class="st5" d="M2379.18,804.07l-19.53-4.68,19.53-4.68,4.68-19.53,4.68,19.53,19.53,4.68-19.53,4.68-4.68,19.53-4.68-19.53ZM2447.65,851.18l2.89-12.07,12.07-2.89-12.07-2.89-2.89-12.07-2.89,12.07-12.07,2.89,12.07,2.89,2.89,12.07ZM2385.65,874.84l7.46-1.79-7.46-1.79-1.79-7.46-1.79,7.46-7.46,1.79,7.46,1.79,1.79,7.46,1.79-7.46ZM2437.72,982.62c1.77.11,3.55.2,5.34.27v-92.48h-5.34v20.23h-10.02v57.61c3.31.38,6.65.67,10.02.88v13.48ZM2453.06,910.65h-4.67v58.95c1.17.01,2.36.03,3.54.03h1.13v-58.98ZM2558.58,956.27c1.78-.96,3.57-1.95,5.34-2.96v-137.71h-5.34v20.23h-10.03v110.52c3.4-1.75,6.76-3.58,10.03-5.49v15.4ZM2573.92,835.84h-4.67v98.35c1.57-1.04,3.13-2.1,4.67-3.2v-95.15ZM2498.14,978.32c1.8-.38,3.58-.76,5.34-1.19v-124.12h-5.34v20.23h-10v93.31c3.35-.58,6.69-1.24,10-1.97v13.74ZM2513.48,873.24h-4.67v88.66c1.57-.44,3.13-.88,4.67-1.36v-87.3ZM2606.41,1008.3c-37.11,21-80.81,31.19-126.46,26.76-42.75-4.15-81.36-20.55-112.68-45.43,23.99,38.81,65.2,66.35,114.13,71.1,47.34,4.6,91.7-13.14,122.63-44.63,4.16-4.22,8.08-8.71,11.72-13.42-3.05,1.94-6.18,3.81-9.34,5.59v.02ZM2428.96,994.08c-17.67-1.72-34.7-5.33-50.91-10.61,24.13,17.37,53.05,28.77,84.77,31.85,57.54,5.59,111.24-17.48,146.95-57.56,15.93-17.85,28.29-39.08,35.8-62.65-11.46,16.14-24.88,30.74-39.86,43.47-47.24,40.21-110.12,61.96-176.76,55.49ZM2505.38,1089.04c-63.88-6.2-117.75-42-149.34-92.49,9.57,55.59,55.25,100.18,114.1,105.89,25.04,2.43,49.1-2.51,70.02-13.06-11.39.89-23.03.8-34.79-.34Z"/>
    <path class="st7" d="M2379.18,90.39l-19.53-4.68,19.53-4.68,4.68-19.53,4.68,19.53,19.53,4.68-19.53,4.68-4.68,19.53-4.68-19.53ZM2447.65,137.51l2.89-12.07,12.07-2.89-12.07-2.89-2.89-12.07-2.89,12.07-12.07,2.89,12.07,2.89,2.89,12.07ZM2385.65,161.16l7.46-1.79-7.46-1.79-1.79-7.46-1.79,7.46-7.46,1.79,7.46,1.79,1.79,7.46,1.79-7.46ZM2437.72,268.94c1.77.11,3.55.2,5.34.27v-92.48h-5.34v20.23h-10.02v57.61c3.31.38,6.65.67,10.02.88v13.48ZM2453.06,196.97h-4.67v58.95c1.17.01,2.36.03,3.54.03h1.13v-58.98ZM2558.58,242.59c1.78-.96,3.57-1.95,5.34-2.96V101.92h-5.34v20.23h-10.03v110.52c3.4-1.75,6.76-3.58,10.03-5.49v15.4ZM2573.92,122.16h-4.67v98.35c1.57-1.04,3.13-2.1,4.67-3.2v-95.15ZM2498.14,264.64c1.8-.38,3.58-.76,5.34-1.19v-124.12h-5.34v20.23h-10v93.31c3.35-.58,6.69-1.24,10-1.97v13.74ZM2513.48,159.56h-4.67v88.66c1.57-.44,3.13-.88,4.67-1.36v-87.3ZM2606.41,294.63c-37.11,21-80.81,31.19-126.46,26.76-42.75-4.15-81.36-20.55-112.68-45.43,23.99,38.81,65.2,66.35,114.13,71.1,47.34,4.6,91.7-13.14,122.63-44.63,4.16-4.22,8.08-8.71,11.72-13.42-3.05,1.94-6.18,3.81-9.34,5.59v.02ZM2428.96,280.4c-17.67-1.72-34.7-5.33-50.91-10.61,24.13,17.37,53.05,28.77,84.77,31.85,57.54,5.59,111.24-17.48,146.95-57.56,15.93-17.85,28.29-39.08,35.8-62.65-11.46,16.14-24.88,30.74-39.86,43.47-47.24,40.21-110.12,61.96-176.76,55.49ZM2505.38,375.36c-63.88-6.2-117.75-42-149.34-92.49,9.57,55.59,55.25,100.18,114.1,105.89,25.04,2.43,49.1-2.51,70.02-13.06-11.39.89-23.03.8-34.79-.34Z"/>
    <path class="st19" d="M2379.18-623.26l-19.53-4.68,19.53-4.68,4.68-19.53,4.68,19.53,19.53,4.68-19.53,4.68-4.68,19.53-4.68-19.53ZM2447.65-576.15l2.89-12.07,12.07-2.89-12.07-2.89-2.89-12.07-2.89,12.07-12.07,2.89,12.07,2.89,2.89,12.07ZM2385.65-552.49l7.46-1.79-7.46-1.79-1.79-7.46-1.79,7.46-7.46,1.79,7.46,1.79,1.79,7.46,1.79-7.46ZM2437.72-444.71c1.77.11,3.55.2,5.34.27v-92.48h-5.34v20.23h-10.02v57.61c3.31.38,6.65.67,10.02.88v13.48ZM2453.06-516.68h-4.67v58.95c1.17.01,2.36.03,3.54.03h1.13v-58.98ZM2558.58-471.06c1.78-.96,3.57-1.95,5.34-2.96v-137.71h-5.34v20.23h-10.03v110.52c3.4-1.75,6.76-3.58,10.03-5.49v15.4ZM2573.92-591.49h-4.67v98.35c1.57-1.04,3.13-2.1,4.67-3.2v-95.15ZM2498.14-449.01c1.8-.38,3.58-.76,5.34-1.19v-124.12h-5.34v20.23h-10v93.31c3.35-.58,6.69-1.24,10-1.97v13.74ZM2513.48-554.09h-4.67v88.66c1.57-.44,3.13-.88,4.67-1.36v-87.3ZM2606.41-419.02c-37.11,21-80.81,31.19-126.46,26.76-42.75-4.15-81.36-20.55-112.68-45.43,23.99,38.81,65.2,66.35,114.13,71.1,47.34,4.6,91.7-13.14,122.63-44.63,4.16-4.22,8.08-8.71,11.72-13.42-3.05,1.94-6.18,3.81-9.34,5.59v.02ZM2428.96-433.25c-17.67-1.72-34.7-5.33-50.91-10.61,24.13,17.37,53.05,28.77,84.77,31.85,57.54,5.59,111.24-17.48,146.95-57.56,15.93-17.85,28.29-39.08,35.8-62.65-11.46,16.14-24.88,30.74-39.86,43.47-47.24,40.21-110.12,61.96-176.76,55.49ZM2505.38-338.29c-63.88-6.2-117.75-42-149.34-92.49,9.57,55.59,55.25,100.18,114.1,105.89,25.04,2.43,49.1-2.51,70.02-13.06-11.39.89-23.03.8-34.79-.34Z"/>
  </g>
</svg>