<?xml version="1.0" encoding="UTF-8"?>
<svg id="_Шар_1" data-name="Шар 1" xmlns="http://www.w3.org/2000/svg" xmlns:xlink="http://www.w3.org/1999/xlink" viewBox="0 0 5000 5000">
  <defs>
    <style>
      .cls-1 {
        fill: url(#_Градієнт_без_назви_835);
      }
    </style>
    <linearGradient id="_Градієнт_без_назви_835" data-name="Градієнт без назви 835" x1="4527.68" y1="2500" x2="472.32" y2="2500" gradientUnits="userSpaceOnUse">
      <stop offset="0" stop-color="#3a71f3"/>
      <stop offset="1" stop-color="#c043dc"/>
    </linearGradient>
  </defs>
  <path class="cls-1" d="M796.42,608.5l-273.52-65.57,273.52-65.57,65.57-273.52,65.57,273.52,273.52,65.57-273.52,65.57-65.57,273.53-65.57-273.53ZM1755.48,1268.37l40.52-169.05,169.05-40.52-169.05-40.53-40.52-169.05-40.52,169.05-169.05,40.53,169.05,40.52,40.52,169.05ZM887.03,1599.7l104.48-25.04-104.48-25.05-25.05-104.48-25.05,104.48-104.48,25.05,104.48,25.04,25.05,104.48,25.05-104.48ZM1616.38,3109.34c24.77,1.5,49.76,2.78,74.75,3.84v-1295.36h-74.75v283.42h-140.32v806.9c46.35,5.34,93.12,9.4,140.32,12.39v188.8ZM1831.24,2101.24h-65.35v825.7c16.45.21,33.1.42,49.55.42h15.8v-826.12ZM3309.2,2740.27c24.99-13.45,49.98-27.33,74.75-41.43V770h-74.75v283.42h-140.53v1548.02c47.63-24.56,94.61-50.19,140.53-76.89v215.71ZM3524.07,1053.42h-65.36v1377.59c22-14.52,43.78-29.47,65.36-44.85v-1332.74ZM2462.58,3049.11c25.2-5.34,50.19-10.68,74.75-16.65v-1738.54h-74.75v283.42h-140.11v1306.9c46.99-8.12,93.76-17.3,140.11-27.55v192.43ZM2677.44,1577.33h-65.36v1241.75c22-6.19,43.78-12.39,65.36-19.01v-1222.74ZM3979.15,3469.11c-519.74,294.16-1131.85,436.88-1771.29,374.8-598.84-58.13-1139.59-287.88-1578.29-636.25,336.05,543.55,913.16,929.39,1598.53,995.92,663.04,64.37,1284.34-184.1,1717.69-625.06,58.32-59.14,113.14-122.06,164.17-187.92-42.77,27.18-86.51,53.4-130.78,78.29l-.02.21ZM1493.66,3269.87c-247.45-24.02-486.07-74.66-713.01-148.62,337.95,243.32,743.03,403.02,1187.33,446.15,805.88,78.24,1558.04-244.87,2058.22-806.15,223.18-250,396.25-547.34,501.47-877.46-160.56,226.03-348.44,430.53-558.24,608.87-661.73,563.2-1542.34,867.82-2475.78,777.2ZM2564.06,4599.91c-894.75-86.86-1649.26-588.21-2091.73-1295.51,134.06,778.65,773.83,1403.18,1598.21,1483.21,350.76,34.05,687.72-35.16,980.8-182.88-159.56,12.41-322.53,11.18-487.28-4.82Z"/>
</svg>